<svg xmlns="http://www.w3.org/2000/svg" xmlns:xlink="http://www.w3.org/1999/xlink" viewBox="0 0 714.08 742.24"><defs><style>.cls-1{fill:#d95704;}.cls-2{fill:url(#Gradiente_sem_nome_36);}.cls-3{fill:url(#Gradiente_sem_nome_36-2);}.cls-4{fill:url(#Gradiente_sem_nome_36-3);}</style><linearGradient id="Gradiente_sem_nome_36" x1="662.95" y1="353.7" x2="250.05" y2="766.59" gradientUnits="userSpaceOnUse"><stop offset="0" stop-color="#d66f0f"/><stop offset="0.5" stop-color="#ff7300"/><stop offset="0.99" stop-color="#fc8312"/></linearGradient><linearGradient id="Gradiente_sem_nome_36-2" x1="555.26" y1="167.69" x2="148.64" y2="574.31" xlink:href="#Gradiente_sem_nome_36"/><linearGradient id="Gradiente_sem_nome_36-3" x1="473.97" y1="-41.26" x2="44.28" y2="388.43" xlink:href="#Gradiente_sem_nome_36"/></defs><g id="Camada_2" data-name="Camada 2"><g id="Camada_2-2" data-name="Camada 2"><text/><polygon class="cls-1" points="513.4 394.84 353.98 550.07 280.67 550.01 440.06 394.79 513.4 394.84"/><polygon class="cls-1" points="405.66 208.79 246.26 364.02 176.15 363.97 335.55 208.74 405.66 208.79"/><path class="cls-2" d="M513.4,394.84,354,550.07l-37.76,36.78L216.14,684.3c-21.65,21.09-6.74,57.82,23.49,57.84l128.69.1a33.74,33.74,0,0,0,23.53-9.56L541.45,587l37.76-36.78L709,423.9c10.83-10.54,3.37-28.91-11.74-28.92Z"/><path class="cls-3" d="M405.66,208.79,246.26,364l-31.43,30.6L114.77,492.06c-21.66,21.08-6.74,57.81,23.48,57.84l142.42.11L440.06,394.79l31.43-30.59L601.23,237.86c10.82-10.55,3.37-28.91-11.75-28.92Z"/><path class="cls-4" d="M338.23,0A33.65,33.65,0,0,0,314.7,9.56l-204.36,199L10.26,306c-21.66,21.08-6.75,57.82,23.48,57.84l142.41.11,159.4-155.23L358.94,186,520.09,29.05C530.91,18.51,523.46.14,508.34.13Z"/></g></g></svg>